solid OpenSCAD_Model
  facet normal -1 0 0
    outer loop
      vertex 0 0 0
      vertex 0 12.16 1
      vertex 0 12.16 0
    endloop
  endfacet
  facet normal -1 -0 0
    outer loop
      vertex 0 12.16 1
      vertex 0 0 0
      vertex 0 0 1
    endloop
  endfacet
  facet normal -0 0 1
    outer loop
      vertex 0 12.16 1
      vertex 19.456 0 1
      vertex 19.456 12.16 1
    endloop
  endfacet
  facet normal 0 0 1
    outer loop
      vertex 19.456 0 1
      vertex 0 12.16 1
      vertex 0 0 1
    endloop
  endfacet
  facet normal 1 -0 0
    outer loop
      vertex 19.456 0 1
      vertex 19.456 12.16 0
      vertex 19.456 12.16 1
    endloop
  endfacet
  facet normal 1 0 0
    outer loop
      vertex 19.456 12.16 0
      vertex 19.456 0 1
      vertex 19.456 0 0
    endloop
  endfacet
  facet normal 0 1 -0
    outer loop
      vertex 19.456 12.16 0
      vertex 0 12.16 1
      vertex 19.456 12.16 1
    endloop
  endfacet
  facet normal 0 1 0
    outer loop
      vertex 0 12.16 1
      vertex 19.456 12.16 0
      vertex 0 12.16 0
    endloop
  endfacet
  facet normal 0 0 -1
    outer loop
      vertex 0 0 0
      vertex 19.456 12.16 0
      vertex 19.456 0 0
    endloop
  endfacet
  facet normal -0 0 -1
    outer loop
      vertex 19.456 12.16 0
      vertex 0 0 0
      vertex 0 12.16 0
    endloop
  endfacet
  facet normal 0 -1 0
    outer loop
      vertex 0 0 0
      vertex 19.456 0 1
      vertex 0 0 1
    endloop
  endfacet
  facet normal 0 -1 -0
    outer loop
      vertex 19.456 0 1
      vertex 0 0 0
      vertex 19.456 0 0
    endloop
  endfacet
  facet normal 1 -0 0
    outer loop
      vertex 7.828 4.18 0.599999
      vertex 7.828 7.98 0.4
      vertex 7.828 7.98 0.599999
    endloop
  endfacet
  facet normal 1 0 0
    outer loop
      vertex 7.828 7.98 0.4
      vertex 7.828 4.18 0.599999
      vertex 7.828 4.18 0.4
    endloop
  endfacet
  facet normal 0 0 -1
    outer loop
      vertex 7.828 4.18 0.599999
      vertex 11.628 7.98 0.599999
      vertex 11.628 4.18 0.599999
    endloop
  endfacet
  facet normal -0 0 -1
    outer loop
      vertex 11.628 7.98 0.599999
      vertex 7.828 4.18 0.599999
      vertex 7.828 7.98 0.599999
    endloop
  endfacet
  facet normal -1 0 0
    outer loop
      vertex 11.628 4.18 0.4
      vertex 11.628 7.98 0.599999
      vertex 11.628 7.98 0.4
    endloop
  endfacet
  facet normal -1 -0 0
    outer loop
      vertex 11.628 7.98 0.599999
      vertex 11.628 4.18 0.4
      vertex 11.628 4.18 0.599999
    endloop
  endfacet
  facet normal -0 0 1
    outer loop
      vertex 7.828 7.98 0.4
      vertex 11.628 4.18 0.4
      vertex 11.628 7.98 0.4
    endloop
  endfacet
  facet normal 0 0 1
    outer loop
      vertex 11.628 4.18 0.4
      vertex 7.828 7.98 0.4
      vertex 7.828 4.18 0.4
    endloop
  endfacet
  facet normal 0 1 -0
    outer loop
      vertex 11.628 4.18 0.4
      vertex 7.828 4.18 0.599999
      vertex 11.628 4.18 0.599999
    endloop
  endfacet
  facet normal 0 1 0
    outer loop
      vertex 7.828 4.18 0.599999
      vertex 11.628 4.18 0.4
      vertex 7.828 4.18 0.4
    endloop
  endfacet
  facet normal 0 -1 0
    outer loop
      vertex 7.828 7.98 0.4
      vertex 11.628 7.98 0.599999
      vertex 7.828 7.98 0.599999
    endloop
  endfacet
  facet normal 0 -1 -0
    outer loop
      vertex 11.628 7.98 0.599999
      vertex 7.828 7.98 0.4
      vertex 11.628 7.98 0.4
    endloop
  endfacet
endsolid OpenSCAD_Model
